# xmcd
#
# Track frame offsets: 
#        150
#        24898
#        59538
#        78618
#        98130
#        114465
#        134605
#        147698
#        170298
#        185653
#
# Disc length: 2717 seconds
#
# Revision: 0
# Processed by: cddbd v1.5.1PL0 Copyright (c) Steve Scherf et al.
# Submitted via: ExactAudioCopy v0.95a5
#
DISCID=8e0a9b0a
DTITLE=London Symphony Orchestra - Gundam Seed Symphony
DYEAR=2004
DGENRE=Symphony
TTITLE0=Opening 碧海情迷
TTITLE1=Suspense 随风入夜
TTITLE2=Take Off 勇士狂歌
TTITLE3=Memory 恋曲彼方
TTITLE4=Zafuto 正义红河
TTITLE5=Death 哀思伴随
TTITLE6=Gundam 誓言之绊
TTITLE7=The Song 曾经拥有
TTITLE8=A Wish 静谧之音
TTITLE9=Finale 纷争残思
EXTD=
EXTT0=
EXTT1=
EXTT2=
EXTT3=
EXTT4=
EXTT5=
EXTT6=
EXTT7=
EXTT8=
EXTT9=
PLAYORDER=
